<?xml version="1.0" standalone="no"?><!DOCTYPE svg PUBLIC "-//W3C//DTD SVG 1.1//EN" "http://www.w3.org/Graphics/SVG/1.1/DTD/svg11.dtd"><svg t="1753320725888" class="icon" viewBox="0 0 1024 1024" version="1.1" xmlns="http://www.w3.org/2000/svg" p-id="21473" xmlns:xlink="http://www.w3.org/1999/xlink" width="200" height="200"><path d="M687.39802 1011.326733h-385.267327c-50.693069 0-91.754455-41.061386-91.754455-91.754456V107.976238c0-50.693069 41.061386-91.754455 91.754455-91.754456h385.267327c50.693069 0 91.754455 41.061386 91.754455 91.754456v675.738613h-50.693069V107.976238c0-22.811881-18.249505-41.061386-41.061386-41.061387h-385.267327c-22.811881 0-41.061386 18.249505-41.061386 41.061387v812.10297c0 22.811881 18.249505 41.061386 41.061386 41.061386h385.267327c22.811881 0 41.061386-18.249505 41.061386-41.061386v-42.075248h50.693069v42.075248c0 50.186139-41.061386 91.247525-91.754455 91.247525z" fill="#ED6D2D" p-id="21474"></path><path d="M687.39802 1024h-385.267327c-57.283168 0-104.427723-46.637624-104.427723-104.427723V107.976238C197.70297 50.186139 244.340594 3.548515 302.130693 3.548515h385.267327c57.283168 0 104.427723 46.637624 104.427723 104.427723v688.411881h-76.039604V107.976238c0-15.714851-12.673267-28.388119-28.388119-28.388119h-385.267327c-15.714851 0-28.388119 12.673267-28.388119 28.388119v812.10297c0 15.714851 12.673267 28.388119 28.388119 28.388119h385.267327c15.714851 0 28.388119-12.673267 28.388119-28.388119v-54.748515h76.039604v54.748515c0 57.283168-47.144554 103.920792-104.427723 103.920792zM302.130693 28.89505C258.534653 28.89505 223.049505 64.380198 223.049505 107.976238v812.10297c0 43.59604 35.485149 79.081188 79.081188 79.081188h385.267327c43.59604 0 79.081188-35.485149 79.081188-79.081188v-29.40198h-25.346535v29.40198c0 29.40198-23.825743 53.734653-53.734653 53.734653h-385.267327c-29.40198 0-53.734653-23.825743-53.734653-53.734653V107.976238c0-29.40198 23.825743-53.734653 53.734653-53.734654h385.267327c29.40198 0 53.734653 23.825743 53.734653 53.734654v663.065346h25.346535V107.976238c0-43.59604-35.485149-79.081188-79.081188-79.081188h-385.267327z" fill="#ED6D2D" p-id="21475"></path><path d="M638.732673 269.180198H348.261386c-24.839604 0-45.623762-18.756436-45.623762-41.568317V142.954455c0-22.811881 20.277228-41.568317 45.623762-41.568316H638.732673c24.839604 0 45.623762 18.756436 45.623763 41.568316v84.150495c0 23.318812-20.277228 42.075248-45.623763 42.075248zM348.261386 138.392079c-2.534653 0-5.069307 2.027723-5.069307 4.562376v84.150495c0 2.534653 2.027723 4.562376 5.069307 4.562377H638.732673c2.534653 0 5.069307-2.027723 5.069307-4.562377V142.954455c0-2.534653-2.027723-4.562376-5.069307-4.562376H348.261386zM400.982178 428.863366c-40.047525 0-72.491089-32.443564-72.491089-72.491089S360.934653 283.881188 400.982178 283.881188s72.491089 32.443564 72.491089 72.491089S441.029703 428.863366 400.982178 428.863366z m0-104.427722c-17.742574 0-31.936634 14.194059-31.936633 31.936633s14.194059 31.936634 31.936633 31.936634 31.936634-14.194059 31.936634-31.936634-14.194059-31.936634-31.936634-31.936633zM590.067327 428.863366c-40.047525 0-72.491089-32.443564-72.491089-72.491089S550.019802 283.881188 590.067327 283.881188s72.491089 32.443564 72.491089 72.491089-32.443564 72.491089-72.491089 72.491089z m0-104.427722c-17.742574 0-31.936634 14.194059-31.936634 31.936633s14.194059 31.936634 31.936634 31.936634 31.936634-14.194059 31.936633-31.936634-14.194059-31.936634-31.936633-31.936633zM590.067327 587.532673c-40.047525 0-72.491089-32.443564-72.491089-72.491089s32.443564-72.491089 72.491089-72.491089 72.491089 32.443564 72.491089 72.491089-32.443564 72.491089-72.491089 72.491089z m0-104.427723c-17.742574 0-31.936634 14.194059-31.936634 31.936634s14.194059 31.936634 31.936634 31.936634 31.936634-14.194059 31.936633-31.936634-14.194059-31.936634-31.936633-31.936634zM400.982178 587.532673c-40.047525 0-72.491089-32.443564-72.491089-72.491089s32.443564-72.491089 72.491089-72.491089 72.491089 32.443564 72.491089 72.491089-32.443564 72.491089-72.491089 72.491089z m0-104.427723c-17.742574 0-31.936634 14.194059-31.936633 31.936634s14.194059 31.936634 31.936633 31.936634 31.936634-14.194059 31.936634-31.936634-14.194059-31.936634-31.936634-31.936634zM400.982178 744.681188c-40.047525 0-72.491089-32.443564-72.491089-72.491089s32.443564-72.491089 72.491089-72.491089 72.491089 32.443564 72.491089 72.491089-32.443564 72.491089-72.491089 72.491089z m0-104.427723c-17.742574 0-31.936634 14.194059-31.936633 31.936634s14.194059 31.936634 31.936633 31.936634 31.936634-14.194059 31.936634-31.936634-14.194059-31.936634-31.936634-31.936634zM590.067327 744.681188c-40.047525 0-72.491089-32.443564-72.491089-72.491089s32.443564-72.491089 72.491089-72.491089 72.491089 32.443564 72.491089 72.491089-32.443564 72.491089-72.491089 72.491089z m0-104.427723c-17.742574 0-31.936634 14.194059-31.936634 31.936634s14.194059 31.936634 31.936634 31.936634 31.936634-14.194059 31.936633-31.936634-14.194059-31.936634-31.936633-31.936634zM985.980198 892.19802h-466.376238v-136.871287h466.376238v136.871287z m-425.821782-46.637624h385.267327v-43.59604h-385.267327v43.59604z" fill="#ED6D2D" p-id="21476"></path></svg>